<svg xmlns="http://www.w3.org/2000/svg" viewBox="0 0 64 64" role="img" aria-labelledby="title desc">
  <title id="title">Bee favicon</title>
  <desc id="desc">A centered white bee on a black circle.</desc>
  <circle cx="32" cy="32" r="30" fill="#000" />
  <g fill="none" stroke="#fff" stroke-linecap="round" stroke-linejoin="round">
    <path d="M29.5 16.5c-1.7-3.6-4.4-5.1-7.4-4.4-1.8.4-3.4 1.7-4.5 3.7" stroke-width="2.2" />
    <path d="M34.5 16.5c1.7-3.6 4.4-5.1 7.4-4.4 1.8.4 3.4 1.7 4.5 3.7" stroke-width="2.2" />
    <path d="M26.5 23.5c-5.5-7.1-12.8-8.2-17.3-2.9 4.1 5.1 10.6 6.9 18.5 5.5" fill="#fff" stroke-width="1.8" />
    <path d="M37.5 23.5c5.5-7.1 12.8-8.2 17.3-2.9-4.1 5.1-10.6 6.9-18.5 5.5" fill="#fff" stroke-width="1.8" />
    <path d="M29 25.5 23.5 34.5" stroke-width="2.8" />
    <path d="M35 25.5 40.5 34.5" stroke-width="2.8" />
    <path d="M25.5 37 20.5 47" stroke-width="2.4" />
    <path d="M38.5 37 43.5 47" stroke-width="2.4" />
    <path d="M20.2 47 17.8 52" stroke-width="1.9" />
    <path d="M43.8 47 46.2 52" stroke-width="1.9" />
  </g>
  <g fill="#fff">
    <ellipse cx="32" cy="19.5" rx="4.8" ry="4" />
    <ellipse cx="32" cy="28.5" rx="6.5" ry="7.5" />
    <path d="M32 31c-4.7 0-7.9 4.6-7.4 10.5.4 5 3.9 11.8 7.4 16 3.5-4.2 7-11 7.4-16 .5-5.9-2.7-10.5-7.4-10.5Z" />
  </g>
  <g fill="none" stroke="#000" stroke-linecap="round">
    <path d="M27.5 37h9" stroke-width="2.2" />
    <path d="M26.5 43h11" stroke-width="2.2" />
    <path d="M28.5 49h7" stroke-width="2.2" />
  </g>
</svg>